<?xml version="1.0" encoding="UTF-8"?>
<!DOCTYPE svg PUBLIC "-//W3C//DTD SVG 1.1//EN" "http://www.w3.org/Graphics/SVG/1.1/DTD/svg11.dtd">
<svg xmlns="http://www.w3.org/2000/svg" version="1.1" width="88px" height="90px" style="shape-rendering:geometricPrecision; text-rendering:geometricPrecision; image-rendering:optimizeQuality; fill-rule:evenodd; clip-rule:evenodd" xmlns:xlink="http://www.w3.org/1999/xlink">
<g><path style="opacity:0.873" fill="#191070" d="M 76.5,2.5 C 79.2867,3.37753 80.62,5.37753 80.5,8.5C 80.62,11.6225 79.2867,13.6225 76.5,14.5C 75.4304,10.3591 75.4304,6.35908 76.5,2.5 Z"/></g>
<g><path style="opacity:0.974" fill="#181577" d="M 76.5,2.5 C 75.4304,6.35908 75.4304,10.3591 76.5,14.5C 73.7276,15.0823 71.0609,16.0823 68.5,17.5C 68.5,12.8333 68.5,8.16667 68.5,3.5C 69.4919,1.9735 70.9919,1.30684 73,1.5C 74.3847,1.51428 75.5514,1.84761 76.5,2.5 Z"/></g>
<g><path style="opacity:0.855" fill="#171b7f" d="M 68.5,3.5 C 68.5,8.16667 68.5,12.8333 68.5,17.5C 67.1891,20.1354 65.5224,22.4687 63.5,24.5C 63.573,22.9731 62.9063,21.9731 61.5,21.5C 63.2805,18.5461 65.2805,15.7128 67.5,13C 64.6901,9.43234 65.0235,6.26567 68.5,3.5 Z"/></g>
<g><path style="opacity:0.932" fill="#0a4fc9" d="M 8.5,15.5 C 8.54687,20.365 8.21354,25.0316 7.5,29.5C 0.890592,28.7416 -1.27607,25.0749 1,18.5C 2.84836,15.9586 5.34836,14.9586 8.5,15.5 Z"/></g>
<g><path style="opacity:0.948" fill="#0b4ac3" d="M 8.5,15.5 C 12.9506,16.6885 15.2839,19.6885 15.5,24.5C 16.4168,25.1272 17.4168,25.4606 18.5,25.5C 18.1436,27.1898 17.1436,28.1898 15.5,28.5C 14.5041,28.5858 13.6708,28.2524 13,27.5C 11.5557,29.1554 9.72241,29.822 7.5,29.5C 8.21354,25.0316 8.54687,20.365 8.5,15.5 Z"/></g>
<g><path style="opacity:0.811" fill="#12309d" d="M 47.5,25.5 C 48.3007,27.0418 48.634,28.7085 48.5,30.5C 45.0369,31.0991 41.7036,32.0991 38.5,33.5C 37.9759,31.6943 37.3092,30.0276 36.5,28.5C 39.6859,26.1257 43.3526,25.1257 47.5,25.5 Z"/></g>
<g><path style="opacity:0.925" fill="#14258d" d="M 47.5,25.5 C 50.7543,25.2069 53.7543,25.8736 56.5,27.5C 57.6946,27.8656 58.3613,28.699 58.5,30C 57.6231,32.0665 57.2898,33.8998 57.5,35.5C 54.9518,33.0584 51.9518,31.3917 48.5,30.5C 48.634,28.7085 48.3007,27.0418 47.5,25.5 Z"/></g>
<g><path style="opacity:0.745" fill="#0e40b4" d="M 18.5,25.5 C 21.8987,27.1993 25.232,28.866 28.5,30.5C 28.7373,31.791 28.404,32.791 27.5,33.5C 23.2132,32.3517 19.2132,30.685 15.5,28.5C 17.1436,28.1898 18.1436,27.1898 18.5,25.5 Z"/></g>
<g><path style="opacity:0.874" fill="#1038a8" d="M 36.5,28.5 C 37.3092,30.0276 37.9759,31.6943 38.5,33.5C 33.2185,40.2792 33.2185,46.9458 38.5,53.5C 38.1667,55.5 37.8333,57.5 37.5,59.5C 36.0357,58.5946 34.7024,58.5946 33.5,59.5C 33.1667,58.1667 32.8333,56.8333 32.5,55.5C 28.0853,49.4461 27.4187,42.9461 30.5,36C 29.4293,35.1482 28.4293,34.3149 27.5,33.5C 28.404,32.791 28.7373,31.791 28.5,30.5C 29.6948,30.6775 30.8615,31.0109 32,31.5C 33.6434,30.6854 35.1434,29.6854 36.5,28.5 Z"/></g>
<g><path style="opacity:0.978" fill="#161e84" d="M 61.5,21.5 C 62.9063,21.9731 63.573,22.9731 63.5,24.5C 62.2599,25.973 61.2599,27.6396 60.5,29.5C 63.738,33.8107 65.738,38.6441 66.5,44C 65.5806,48.6587 64.2472,53.1587 62.5,57.5C 62.5,59.1667 62.5,60.8333 62.5,62.5C 61.1667,61.1667 59.8333,59.8333 58.5,58.5C 58.1667,56.5 57.8333,54.5 57.5,52.5C 61.5,46.8333 61.5,41.1667 57.5,35.5C 57.2898,33.8998 57.6231,32.0665 58.5,30C 58.3613,28.699 57.6946,27.8656 56.5,27.5C 58.177,25.4602 59.8437,23.4602 61.5,21.5 Z"/></g>
<g><path style="opacity:0.906" fill="#14238b" d="M 57.5,52.5 C 57.8333,54.5 58.1667,56.5 58.5,58.5C 57.3406,60.2503 55.674,61.2503 53.5,61.5C 54.2907,59.3093 54.2907,57.3093 53.5,55.5C 54.795,54.5116 56.1283,53.5116 57.5,52.5 Z"/></g>
<g><path style="opacity:0.896" fill="#0f3aab" d="M 32.5,55.5 C 32.8333,56.8333 33.1667,58.1667 33.5,59.5C 32.5,61.1667 31.1667,62.5 29.5,63.5C 28.5,62.8333 27.5,62.1667 26.5,61.5C 28.1939,59.1394 30.1939,57.1394 32.5,55.5 Z"/></g>
<g><path style="opacity:0.882" fill="#142891" d="M 53.5,55.5 C 54.2907,57.3093 54.2907,59.3093 53.5,61.5C 51.9582,62.3007 50.2915,62.634 48.5,62.5C 48.3253,60.3792 48.6586,58.3792 49.5,56.5C 50.9587,56.5674 52.2921,56.2341 53.5,55.5 Z"/></g>
<g><path style="opacity:1" fill="#122f9c" d="M 38.5,53.5 C 41.6677,56.0561 45.3344,57.0561 49.5,56.5C 48.6586,58.3792 48.3253,60.3792 48.5,62.5C 44.2935,63.055 40.6269,62.055 37.5,59.5C 37.8333,57.5 38.1667,55.5 38.5,53.5 Z"/></g>
<g><path style="opacity:0.781" fill="#0e3fb2" d="M 26.5,61.5 C 27.5,62.1667 28.5,62.8333 29.5,63.5C 28.3747,65.1288 27.0414,66.6288 25.5,68C 26.6343,71.2462 25.6343,73.7462 22.5,75.5C 22.244,71.7307 22.5773,68.0641 23.5,64.5C 24.1667,63.1667 25.1667,62.1667 26.5,61.5 Z"/></g>
<g><path style="opacity:0.965" fill="#0d43b9" d="M 23.5,64.5 C 22.5773,68.0641 22.244,71.7307 22.5,75.5C 17.4758,77.3125 14.4758,75.4792 13.5,70C 14.636,64.2641 17.9694,62.4308 23.5,64.5 Z"/></g>
<g><path style="opacity:0.976" fill="#191373" d="M 71.5,66.5 C 73.5,66.5 75.5,66.5 77.5,66.5C 78.0443,73.5339 78.0443,80.5339 77.5,87.5C 75.5853,87.7845 73.9187,87.4511 72.5,86.5C 72.9764,80.9676 73.3098,75.3009 73.5,69.5C 72.8075,68.4822 72.1408,67.4822 71.5,66.5 Z"/></g>
<g><path style="opacity:0.974" fill="#1a0e6d" d="M 77.5,66.5 C 79.3797,66.2291 80.713,66.8958 81.5,68.5C 82.4069,74.1064 82.7402,79.773 82.5,85.5C 81.1805,86.9418 79.5138,87.6085 77.5,87.5C 78.0443,80.5339 78.0443,73.5339 77.5,66.5 Z"/></g>
<g><path style="opacity:0.996" fill="#181679" d="M 68.5,64.5 C 69.5,65.1667 70.5,65.8333 71.5,66.5C 72.1408,67.4822 72.8075,68.4822 73.5,69.5C 73.3098,75.3009 72.9764,80.9676 72.5,86.5C 70.847,86.3404 69.5137,85.6737 68.5,84.5C 68.4478,77.4218 68.4478,70.7551 68.5,64.5 Z"/></g>
<g><path style="opacity:0.893" fill="#1a0b68" d="M 81.5,68.5 C 85.1532,69.7861 86.8199,72.4527 86.5,76.5C 86.493,80.1739 85.1597,83.1739 82.5,85.5C 82.7402,79.773 82.4069,74.1064 81.5,68.5 Z"/></g>
<g><path style="opacity:0.871" fill="#181a7e" d="M 62.5,57.5 C 65.2195,59.2193 67.2195,61.5526 68.5,64.5C 68.4478,70.7551 68.4478,77.4218 68.5,84.5C 66.1058,82.6682 65.1058,80.1682 65.5,77C 65.411,74.2875 66.0776,71.7875 67.5,69.5C 66.0692,66.9613 64.4025,64.6279 62.5,62.5C 62.5,60.8333 62.5,59.1667 62.5,57.5 Z"/></g>
</svg>
