<svg width="23" height="21" viewBox="0 0 23 21" fill="none" xmlns="http://www.w3.org/2000/svg">
<path d="M15.2912 3.11479V3.66437L15.8386 3.71249C16.9786 3.8127 17.7567 4.17783 18.2694 4.69459C18.7482 5.17715 19.0479 5.84461 19.1537 6.69729L3.87278 6.69729C3.97859 5.84461 4.27826 5.17715 4.75707 4.69459C5.2698 4.17783 6.04787 3.8127 7.18786 3.71249L7.73532 3.66437V3.11479V1.74979C7.73532 1.74842 7.73546 1.74631 7.73726 1.7423C7.73932 1.73773 7.7438 1.73038 7.75234 1.72227C7.77013 1.70539 7.7964 1.69354 7.82657 1.69354C7.85674 1.69354 7.88301 1.70539 7.9008 1.72228C7.90934 1.73038 7.91382 1.73773 7.91588 1.7423C7.91768 1.74631 7.91782 1.74842 7.91782 1.74979V3.06229V3.66229H8.51782L14.5087 3.66229H15.1087V3.06229V1.74979C15.1087 1.74842 15.1088 1.74631 15.1106 1.7423C15.1127 1.73773 15.1171 1.73038 15.1257 1.72227C15.1435 1.70539 15.1697 1.69354 15.1999 1.69354C15.2301 1.69354 15.2563 1.70539 15.2741 1.72227C15.2827 1.73038 15.2872 1.73773 15.2892 1.7423C15.291 1.74631 15.2912 1.74842 15.2912 1.74979V3.11479Z" fill="#3760DD" stroke="#3760DD" stroke-width="1.2"/>
<path d="M9.30483 16.412L9.33759 16.3871L9.36664 16.358C9.6338 16.0903 9.80922 15.7143 9.80922 15.3129C9.80922 14.9116 9.6338 14.5356 9.36664 14.2679L9.33759 14.2388L9.30483 14.2139L9.16658 14.1089L9.14619 14.0934L9.12456 14.0797C9.04238 14.0277 8.95361 13.9829 8.85833 13.9492C8.76942 13.9103 8.67489 13.881 8.57537 13.8644C8.28952 13.8117 7.99272 13.8367 7.71777 13.9494C7.51974 14.0239 7.37047 14.127 7.24341 14.2355L7.22529 14.251L7.20846 14.2679C6.9413 14.5356 6.76588 14.9116 6.76588 15.3129C6.76588 15.7143 6.9413 16.0903 7.20846 16.358L7.22529 16.3749L7.24341 16.3904C7.37178 16.5 7.52283 16.6041 7.72392 16.6788C7.89235 16.7445 8.08441 16.7879 8.28755 16.7879C8.38944 16.7879 8.48177 16.7749 8.53464 16.7675C8.54124 16.7666 8.54721 16.7657 8.55252 16.765L8.55254 16.7651L8.56565 16.7631C8.66874 16.7468 8.76653 16.7168 8.85834 16.6767C8.94981 16.6443 9.0353 16.6017 9.11472 16.5524C9.17548 16.5162 9.22409 16.4775 9.24961 16.4569C9.25957 16.4489 9.27179 16.4388 9.28024 16.4319C9.28321 16.4294 9.28572 16.4274 9.2875 16.4259C9.29746 16.4177 9.30221 16.414 9.30483 16.412ZM9.34316 13.3178L9.35521 13.307L9.36664 13.2955C9.6338 13.0278 9.80922 12.6518 9.80922 12.2504C9.80922 11.8491 9.6338 11.4731 9.36665 11.2054L9.36092 11.1996L9.35504 11.1941C9.20888 11.0553 9.0384 10.9545 8.8545 10.8859C8.29808 10.6626 7.64728 10.7885 7.22006 11.1941L7.21418 11.1996L7.20846 11.2054C6.9413 11.4731 6.76588 11.8491 6.76588 12.2504C6.76588 12.6518 6.9413 13.0278 7.20846 13.2955L7.2199 13.307L7.23194 13.3178C7.51277 13.5704 7.8939 13.7254 8.28755 13.7254C8.68121 13.7254 9.06233 13.5704 9.34316 13.3178ZM12.569 16.3803L12.581 16.3695L12.5925 16.358C12.8596 16.0903 13.0351 15.7143 13.0351 15.3129C13.0351 14.9116 12.8596 14.5356 12.5925 14.2679L12.5868 14.2621L12.5809 14.2566C12.2791 13.97 11.8794 13.8489 11.5134 13.8489C11.1474 13.8489 10.7477 13.97 10.4459 14.2566L10.44 14.2621L10.4343 14.2679C10.1671 14.5356 9.99172 14.9116 9.99172 15.3129C9.99172 15.7143 10.1671 16.0903 10.4343 16.358L10.4457 16.3695L10.4578 16.3803C10.7386 16.6329 11.1197 16.7879 11.5134 16.7879C11.907 16.7879 12.2882 16.6329 12.569 16.3803ZM12.5307 13.3495L12.5634 13.3246L12.5925 13.2955C12.8596 13.0278 13.0351 12.6518 13.0351 12.2504C13.0351 11.8491 12.8596 11.4731 12.5925 11.2054L12.5868 11.1996L12.5809 11.1941C12.1536 10.7885 11.5028 10.6626 10.9464 10.8859C10.7625 10.9545 10.592 11.0553 10.4459 11.1941L10.44 11.1996L10.4343 11.2054C10.1671 11.4731 9.99172 11.8491 9.99172 12.2504C9.99172 12.6518 10.1671 13.0278 10.4343 13.2955L10.4457 13.307L10.4578 13.3178C10.7386 13.5704 11.1197 13.7254 11.5134 13.7254C11.6153 13.7254 11.7076 13.7124 11.7605 13.705C11.7671 13.7041 11.773 13.7032 11.7784 13.7025L11.7784 13.7026L11.7915 13.7006C11.8946 13.6843 11.9924 13.6543 12.0842 13.6142C12.1794 13.5804 12.2682 13.5357 12.3504 13.4837L12.372 13.47L12.3924 13.4545L12.5307 13.3495ZM15.7948 16.3803L15.8069 16.3695L15.8183 16.358C16.0855 16.0903 16.2609 15.7143 16.2609 15.3129C16.2609 14.9116 16.0855 14.5356 15.8183 14.2679L15.8126 14.2621L15.8067 14.2566C15.5049 13.97 15.1052 13.8489 14.7392 13.8489C14.3732 13.8489 13.9735 13.97 13.6717 14.2566L13.6658 14.2621L13.6601 14.2679C13.393 14.5356 13.2176 14.9116 13.2176 15.3129C13.2176 15.7143 13.393 16.0903 13.6601 16.358L13.6716 16.3695L13.6836 16.3803C13.9644 16.6329 14.3456 16.7879 14.7392 16.7879C15.1329 16.7879 15.514 16.6329 15.7948 16.3803ZM15.7565 13.3495L15.7893 13.3246L15.8183 13.2955C16.0855 13.0278 16.2609 12.6518 16.2609 12.2504C16.2609 11.8491 16.0855 11.4731 15.8183 11.2054L15.7893 11.1763L15.7565 11.1514L15.6874 11.0989L15.6182 11.0464L15.5979 11.0309L15.5762 11.0172C15.4941 10.9652 15.4053 10.9204 15.31 10.8867C15.2211 10.8478 15.1266 10.8185 15.0271 10.8019C14.7412 10.7492 14.4444 10.7742 14.1694 10.8869C13.9714 10.9614 13.8221 11.0645 13.6951 11.173L13.677 11.1885L13.6601 11.2054C13.393 11.4731 13.2176 11.8491 13.2176 12.2504C13.2176 12.6518 13.393 13.0278 13.6601 13.2955L13.6716 13.307L13.6836 13.3178C13.9644 13.5704 14.3456 13.7254 14.7392 13.7254C14.8366 13.7254 14.9374 13.7116 14.9933 13.704C14.9971 13.7035 15.0008 13.703 15.0042 13.7025L15.0042 13.7026L15.0173 13.7006C15.1204 13.6843 15.2182 13.6543 15.31 13.6142C15.4053 13.5804 15.4941 13.5357 15.5762 13.4837L15.5979 13.47L15.6182 13.4545L15.7565 13.3495ZM4.14005 9.21044L18.8867 9.21044C19.092 9.21044 19.2084 9.36456 19.2084 9.48544V14.8754C19.2084 16.0883 18.8898 17.0094 18.285 17.6278C17.6829 18.2434 16.7074 18.6504 15.2001 18.6504H7.82672C6.31936 18.6504 5.34392 18.2434 4.7418 17.6278C4.13697 17.0094 3.81838 16.0883 3.81838 14.8754L3.81838 9.48544C3.81838 9.36456 3.93475 9.21044 4.14005 9.21044Z" fill="#3760DD" stroke="#3760DD" stroke-width="1.2"/>
</svg>
