<?xml version="1.0" encoding="UTF-8"?>
<!DOCTYPE svg PUBLIC "-//W3C//DTD SVG 1.1//EN" "http://www.w3.org/Graphics/SVG/1.1/DTD/svg11.dtd">
<svg xmlns="http://www.w3.org/2000/svg" version="1.1" width="1280px" height="720px" style="shape-rendering:geometricPrecision; text-rendering:geometricPrecision; image-rendering:optimizeQuality; fill-rule:evenodd; clip-rule:evenodd" xmlns:xlink="http://www.w3.org/1999/xlink">
<g><path style="opacity:0.873" fill="#191070" d="M 578.5,317.5 C 581.287,318.378 582.62,320.378 582.5,323.5C 582.62,326.622 581.287,328.622 578.5,329.5C 577.43,325.359 577.43,321.359 578.5,317.5 Z"/></g>
<g><path style="opacity:0.974" fill="#181577" d="M 578.5,317.5 C 577.43,321.359 577.43,325.359 578.5,329.5C 575.728,330.082 573.061,331.082 570.5,332.5C 570.5,327.833 570.5,323.167 570.5,318.5C 571.492,316.974 572.992,316.307 575,316.5C 576.385,316.514 577.551,316.848 578.5,317.5 Z"/></g>
<g><path style="opacity:0.855" fill="#171b7f" d="M 570.5,318.5 C 570.5,323.167 570.5,327.833 570.5,332.5C 569.189,335.135 567.522,337.469 565.5,339.5C 565.573,337.973 564.906,336.973 563.5,336.5C 565.28,333.546 567.28,330.713 569.5,328C 566.69,324.432 567.023,321.266 570.5,318.5 Z"/></g>
<g><path style="opacity:0.932" fill="#0a4fc9" d="M 510.5,330.5 C 510.547,335.365 510.214,340.032 509.5,344.5C 502.891,343.742 500.724,340.075 503,333.5C 504.848,330.959 507.348,329.959 510.5,330.5 Z"/></g>
<g><path style="opacity:0.948" fill="#0b4ac3" d="M 510.5,330.5 C 514.951,331.688 517.284,334.688 517.5,339.5C 518.417,340.127 519.417,340.461 520.5,340.5C 520.144,342.19 519.144,343.19 517.5,343.5C 516.504,343.586 515.671,343.252 515,342.5C 513.556,344.155 511.722,344.822 509.5,344.5C 510.214,340.032 510.547,335.365 510.5,330.5 Z"/></g>
<g><path style="opacity:0.811" fill="#12309d" d="M 549.5,340.5 C 550.301,342.042 550.634,343.708 550.5,345.5C 547.037,346.099 543.704,347.099 540.5,348.5C 539.976,346.694 539.309,345.028 538.5,343.5C 541.686,341.126 545.353,340.126 549.5,340.5 Z"/></g>
<g><path style="opacity:0.925" fill="#14258d" d="M 549.5,340.5 C 552.754,340.207 555.754,340.874 558.5,342.5C 559.695,342.866 560.361,343.699 560.5,345C 559.623,347.066 559.29,348.9 559.5,350.5C 556.952,348.058 553.952,346.392 550.5,345.5C 550.634,343.708 550.301,342.042 549.5,340.5 Z"/></g>
<g><path style="opacity:0.745" fill="#0e40b4" d="M 520.5,340.5 C 523.899,342.199 527.232,343.866 530.5,345.5C 530.737,346.791 530.404,347.791 529.5,348.5C 525.213,347.352 521.213,345.685 517.5,343.5C 519.144,343.19 520.144,342.19 520.5,340.5 Z"/></g>
<g><path style="opacity:0.874" fill="#1038a8" d="M 538.5,343.5 C 539.309,345.028 539.976,346.694 540.5,348.5C 535.219,355.279 535.219,361.946 540.5,368.5C 540.167,370.5 539.833,372.5 539.5,374.5C 538.036,373.595 536.702,373.595 535.5,374.5C 535.167,373.167 534.833,371.833 534.5,370.5C 530.085,364.446 529.419,357.946 532.5,351C 531.429,350.148 530.429,349.315 529.5,348.5C 530.404,347.791 530.737,346.791 530.5,345.5C 531.695,345.678 532.862,346.011 534,346.5C 535.643,345.685 537.143,344.685 538.5,343.5 Z"/></g>
<g><path style="opacity:0.978" fill="#161e84" d="M 563.5,336.5 C 564.906,336.973 565.573,337.973 565.5,339.5C 564.26,340.973 563.26,342.64 562.5,344.5C 565.738,348.811 567.738,353.644 568.5,359C 567.581,363.659 566.247,368.159 564.5,372.5C 564.5,374.167 564.5,375.833 564.5,377.5C 563.167,376.167 561.833,374.833 560.5,373.5C 560.167,371.5 559.833,369.5 559.5,367.5C 563.5,361.833 563.5,356.167 559.5,350.5C 559.29,348.9 559.623,347.066 560.5,345C 560.361,343.699 559.695,342.866 558.5,342.5C 560.177,340.46 561.844,338.46 563.5,336.5 Z"/></g>
<g><path style="opacity:0.906" fill="#14238b" d="M 559.5,367.5 C 559.833,369.5 560.167,371.5 560.5,373.5C 559.341,375.25 557.674,376.25 555.5,376.5C 556.291,374.309 556.291,372.309 555.5,370.5C 556.795,369.512 558.128,368.512 559.5,367.5 Z"/></g>
<g><path style="opacity:0.896" fill="#0f3aab" d="M 534.5,370.5 C 534.833,371.833 535.167,373.167 535.5,374.5C 534.5,376.167 533.167,377.5 531.5,378.5C 530.5,377.833 529.5,377.167 528.5,376.5C 530.194,374.139 532.194,372.139 534.5,370.5 Z"/></g>
<g><path style="opacity:0.882" fill="#142891" d="M 555.5,370.5 C 556.291,372.309 556.291,374.309 555.5,376.5C 553.958,377.301 552.292,377.634 550.5,377.5C 550.325,375.379 550.659,373.379 551.5,371.5C 552.959,371.567 554.292,371.234 555.5,370.5 Z"/></g>
<g><path style="opacity:1" fill="#122f9c" d="M 540.5,368.5 C 543.668,371.056 547.334,372.056 551.5,371.5C 550.659,373.379 550.325,375.379 550.5,377.5C 546.294,378.055 542.627,377.055 539.5,374.5C 539.833,372.5 540.167,370.5 540.5,368.5 Z"/></g>
<g><path style="opacity:0.781" fill="#0e3fb2" d="M 528.5,376.5 C 529.5,377.167 530.5,377.833 531.5,378.5C 530.375,380.129 529.041,381.629 527.5,383C 528.634,386.246 527.634,388.746 524.5,390.5C 524.244,386.731 524.577,383.064 525.5,379.5C 526.167,378.167 527.167,377.167 528.5,376.5 Z"/></g>
<g><path style="opacity:0.965" fill="#0d43b9" d="M 525.5,379.5 C 524.577,383.064 524.244,386.731 524.5,390.5C 519.476,392.313 516.476,390.479 515.5,385C 516.636,379.264 519.969,377.431 525.5,379.5 Z"/></g>
<g><path style="opacity:0.976" fill="#191373" d="M 573.5,381.5 C 575.5,381.5 577.5,381.5 579.5,381.5C 580.044,388.534 580.044,395.534 579.5,402.5C 577.585,402.784 575.919,402.451 574.5,401.5C 574.976,395.968 575.31,390.301 575.5,384.5C 574.807,383.482 574.141,382.482 573.5,381.5 Z"/></g>
<g><path style="opacity:0.974" fill="#1a0e6d" d="M 579.5,381.5 C 581.38,381.229 582.713,381.896 583.5,383.5C 584.407,389.106 584.74,394.773 584.5,400.5C 583.18,401.942 581.514,402.608 579.5,402.5C 580.044,395.534 580.044,388.534 579.5,381.5 Z"/></g>
<g><path style="opacity:0.996" fill="#181679" d="M 570.5,379.5 C 571.5,380.167 572.5,380.833 573.5,381.5C 574.141,382.482 574.807,383.482 575.5,384.5C 575.31,390.301 574.976,395.968 574.5,401.5C 572.847,401.34 571.514,400.674 570.5,399.5C 570.448,392.422 570.448,385.755 570.5,379.5 Z"/></g>
<g><path style="opacity:0.893" fill="#1a0b68" d="M 583.5,383.5 C 587.153,384.786 588.82,387.453 588.5,391.5C 588.493,395.174 587.16,398.174 584.5,400.5C 584.74,394.773 584.407,389.106 583.5,383.5 Z"/></g>
<g><path style="opacity:0.871" fill="#181a7e" d="M 564.5,372.5 C 567.219,374.219 569.219,376.553 570.5,379.5C 570.448,385.755 570.448,392.422 570.5,399.5C 568.106,397.668 567.106,395.168 567.5,392C 567.411,389.287 568.078,386.787 569.5,384.5C 568.069,381.961 566.403,379.628 564.5,377.5C 564.5,375.833 564.5,374.167 564.5,372.5 Z"/></g>
</svg>
